<?xml version="1.0" encoding="UTF-8" standalone="no"?>
<svg
   width="297mm"
   height="210mm"
   viewBox="0 0 297 210"
   version="1.1"
   id="svg8"
   inkscape:version="1.1.1 (1:1.1+202109281949+c3084ef5ed)"
   sodipodi:docname="drawing-12.svg"
   xmlns:inkscape="http://www.inkscape.org/namespaces/inkscape"
   xmlns:sodipodi="http://sodipodi.sourceforge.net/DTD/sodipodi-0.dtd"
   xmlns:xlink="http://www.w3.org/1999/xlink"
   xmlns="http://www.w3.org/2000/svg"
   xmlns:svg="http://www.w3.org/2000/svg"
   xmlns:rdf="http://www.w3.org/1999/02/22-rdf-syntax-ns#"
   xmlns:cc="http://creativecommons.org/ns#"
   xmlns:dc="http://purl.org/dc/elements/1.1/">
  <defs
     id="defs2">
    <linearGradient
       inkscape:collect="always"
       id="linearGradient865">
      <stop
         style="stop-color:#4a4b49;stop-opacity:1"
         offset="0"
         id="stop861" />
      <stop
         style="stop-color:#3fc1c6;stop-opacity:1"
         offset="1"
         id="stop863" />
    </linearGradient>
    <linearGradient
       inkscape:collect="always"
       xlink:href="#linearGradient865"
       id="linearGradient867"
       x1="199.71974"
       y1="166.10355"
       x2="75.142075"
       y2="41.921371"
       gradientUnits="userSpaceOnUse"
       gradientTransform="matrix(1.6020669,0,0,1.6020669,-72.333334,-66.961888)" />
  </defs>
  <sodipodi:namedview
     id="base"
     pagecolor="#ffffff"
     bordercolor="#666666"
     borderopacity="1.0"
     inkscape:pageopacity="0.0"
     inkscape:pageshadow="2"
     inkscape:zoom="0.66901042"
     inkscape:cx="578.46633"
     inkscape:cy="325.10704"
     inkscape:document-units="mm"
     inkscape:current-layer="layer1"
     inkscape:document-rotation="0"
     showgrid="false"
     inkscape:showpageshadow="false"
     inkscape:window-width="1920"
     inkscape:window-height="1022"
     inkscape:window-x="0"
     inkscape:window-y="27"
     inkscape:window-maximized="1"
     inkscape:pagecheckerboard="0" />
  <metadata
     id="metadata5">
    <rdf:RDF>
      <cc:Work
         rdf:about="">
        <dc:format>image/svg+xml</dc:format>
        <dc:type
           rdf:resource="http://purl.org/dc/dcmitype/StillImage" />
        <dc:title />
      </cc:Work>
    </rdf:RDF>
  </metadata>
  <g
     inkscape:label="Layer 1"
     inkscape:groupmode="layer"
     id="layer1">
    <path
       style="fill:url(#linearGradient867);fill-opacity:1;stroke-width:1.60207"
       d="m 225.3349,208.55037 c -1.37523,-0.33275 -3.75955,-1.21004 -5.29852,-1.94955 -2.50905,-1.20567 -4.64804,-3.18641 -20.70813,-19.17607 -17.75537,-17.67751 -17.91008,-17.84646 -17.90894,-19.55914 8.4e-4,-1.29967 0.26701,-1.97738 1.07453,-2.73601 l 1.0734,-1.0084 -5.83637,-5.84756 c -3.21002,-3.21617 -5.97178,-5.84758 -6.13726,-5.84758 -0.16548,0 -1.46271,0.68094 -2.88271,1.51318 -6.12639,3.59058 -16.45683,7.30348 -24.63907,8.85562 -27.13594,5.1476 -56.243168,-4.75893 -74.63328,-25.40115 C 57.583768,124.08715 50.228102,108.1938 48.31046,91.742398 47.499718,84.787071 47.980274,72.974048 49.333636,66.590331 53.034267,49.13486 62.397483,33.04281 75.652968,21.356764 100.27172,-0.34713766 135.9723,-5.1990344 165.52491,9.1427006 c 8.97829,4.3571064 15.94407,9.4192254 23.13177,16.8101154 13.79101,14.180876 21.30428,30.787501 22.91667,50.652936 1.25017,15.402839 -2.48737,31.899858 -10.29743,45.451498 l -2.16325,3.75352 5.45372,5.46587 c 2.99956,3.00621 5.61714,5.46586 5.81685,5.46586 0.19973,0 0.84815,-0.38149 1.4409,-0.84776 0.62279,-0.48987 1.71959,-0.84776 2.59813,-0.84776 1.43641,0 2.47621,0.95358 18.83458,17.27311 18.94879,18.90381 19.94553,20.1168 21.4888,26.1509 1.53604,6.00588 0.93872,11.85361 -1.78826,17.50652 -1.85884,3.85333 -6.69913,8.72636 -10.52063,10.59181 -5.26016,2.56775 -11.62839,3.30544 -17.10186,1.98105 z m 8.73177,-8.27856 c 4.99863,-1.06061 8.88823,-4.16276 11.08905,-8.8441 1.11795,-2.37797 1.29524,-3.23926 1.30889,-6.3582 0.0145,-3.21909 -0.13505,-3.92723 -1.3849,-6.57482 -1.28654,-2.72536 -2.61614,-4.18526 -16.31655,-17.91557 l -14.91589,-14.94839 -11.13206,11.14164 -11.13207,11.14164 15.15893,15.09572 c 8.33741,8.30268 15.77507,15.40723 16.52813,15.78794 1.78146,0.90058 5.47348,1.88748 7.19351,1.92285 0.7462,0.016 2.36755,-0.18658 3.60296,-0.44871 z m -35.44064,-61.30395 c -2.81176,-2.85589 -5.21051,-5.18075 -5.33059,-5.16633 -0.11998,0.0145 -1.36278,1.37943 -2.76158,3.03342 -1.3988,1.65398 -4.50401,4.73348 -6.90042,6.84335 l -4.35716,3.83609 5.18483,5.19732 5.18484,5.19731 7.04618,-6.8743 7.04617,-6.87431 z m -56.44389,15.58574 c 22.67417,-3.89027 42.46872,-18.83965 53.16273,-40.14999 C 206.60168,91.971823 205.07216,65.169824 191.339,44.208258 172.30374,15.153794 139.03377,3.2204746 106.1817,13.663913 c -4.97057,1.580113 -14.666214,6.501239 -19.286545,9.789093 -5.19129,3.694146 -13.838977,12.351041 -17.473986,17.492573 -5.907495,8.355852 -10.263594,18.450603 -12.268741,28.431374 -1.290482,6.423477 -1.381158,19.064912 -0.183725,25.613338 5.912668,32.334829 32.064747,56.671389 64.896577,60.391319 4.93805,0.55951 14.5015,0.16974 20.31686,-0.82801 z m -20.06662,-33.09067 c -17.89278,-2.2475 -35.910547,-12.61791 -50.924212,-29.310241 -5.624953,-6.253896 -6.33792,-7.322843 -6.33792,-9.502423 0,-1.651138 0.312771,-2.20821 3.236767,-5.764749 6.98027,-8.490304 17.89167,-18.177318 25.799016,-22.904067 6.984339,-4.175012 15.107289,-7.423392 22.677599,-9.068817 2.85916,-0.621448 5.39689,-0.781095 12.29253,-0.773311 9.38058,0.01054 12.90512,0.525693 20.21177,2.953914 4.51459,1.500342 12.98692,5.627062 17.21131,8.383334 7.74691,5.054594 17.94495,14.446528 24.61178,22.666361 3.91063,4.82158 3.71907,5.394768 -5.05487,15.124691 -13.37229,14.829308 -28.47887,24.083828 -44.67617,27.369318 -5.10011,1.03452 -14.23411,1.43061 -19.0476,0.82599 z m 20.28179,-9.90994 c 8.56043,-2.16041 17.39787,-6.62422 25.36349,-12.811207 3.84189,-2.984032 12.43747,-11.336967 14.85094,-14.431696 l 1.38718,-1.778743 -6.69371,-6.756321 c -3.68155,-3.715973 -8.5058,-8.100466 -10.72058,-9.74332 -26.31091,-19.516647 -54.28337,-17.996685 -80.145624,4.354943 -3.855511,3.332158 -11.836385,11.79878 -11.836385,12.556798 0,0.216855 2.908873,3.326804 6.464176,6.911001 11.84219,11.938445 22.558943,18.531895 35.133173,21.615595 6.02427,1.4774 5.99646,1.47482 14.35485,1.32898 6.33223,-0.11052 8.06547,-0.29284 11.84249,-1.24603 z m -16.0813,-9.0142 c -9.6229,-1.61493 -16.97965,-10.110436 -16.94484,-19.567758 0.0213,-5.782941 1.77347,-9.967872 5.89176,-14.071868 6.95919,-6.935013 16.87324,-7.907748 25.03656,-2.456499 10.39323,6.940339 11.75126,21.330193 2.85277,30.228674 -1.46307,1.463067 -3.65251,3.163003 -4.86544,3.777631 -3.71758,1.88384 -8.36436,2.69505 -11.97081,2.08982 z m 6.52097,-9.121476 c 2.3566,-0.693287 6.2605,-4.597184 6.9538,-6.953791 0.86347,-2.935036 0.64867,-6.082809 -0.58385,-8.556145 -2.77518,-5.569074 -9.55986,-7.9514 -14.89441,-5.229915 -3.98915,2.035112 -6.82406,7.002859 -6.33806,11.106458 0.86058,7.266177 7.74381,11.727669 14.86252,9.633393 z"
       id="path847"
       inkscape:export-xdpi="300"
       inkscape:export-ydpi="300" />
    <text
       xml:space="preserve"
       style="font-size:9.87777px;line-height:1.25;font-family:'Julietta Messie';-inkscape-font-specification:'Julietta Messie';letter-spacing:1.85208px;stroke-width:0.264583"
       x="-102.826"
       y="117.45893"
       id="text859"><tspan
         sodipodi:role="line"
         id="tspan857"
         x="-102.826"
         y="117.45893"
         style="stroke-width:0.264583" /></text>
  </g>
</svg>
