<?xml version="1.0" encoding="UTF-8" standalone="no"?>
<svg
   xmlns:dc="http://purl.org/dc/elements/1.1/"
   xmlns:cc="http://creativecommons.org/ns#"
   xmlns:rdf="http://www.w3.org/1999/02/22-rdf-syntax-ns#"
   xmlns:svg="http://www.w3.org/2000/svg"
   xmlns="http://www.w3.org/2000/svg"
   xmlns:xlink="http://www.w3.org/1999/xlink"
   xmlns:sodipodi="http://sodipodi.sourceforge.net/DTD/sodipodi-0.dtd"
   xmlns:inkscape="http://www.inkscape.org/namespaces/inkscape"
   width="297mm"
   height="210mm"
   viewBox="0 0 297 210"
   version="1.1"
   id="svg8"
   inkscape:version="1.0.2-2 (e86c870879, 2021-01-15)"
   sodipodi:docname="drawing-12.svg">
  <defs
     id="defs2">
    <linearGradient
       inkscape:collect="always"
       id="linearGradient865">
      <stop
         style="stop-color:#3fc1c6;stop-opacity:1"
         offset="0"
         id="stop861" />
      <stop
         style="stop-color:#3fc1c6;stop-opacity:1"
         offset="1"
         id="stop863" />
    </linearGradient>
    <linearGradient
       inkscape:collect="always"
       xlink:href="#linearGradient865"
       id="linearGradient867"
       x1="199.71974"
       y1="166.10355"
       x2="105.76357"
       y2="65.094398"
       gradientUnits="userSpaceOnUse" />
  </defs>
  <sodipodi:namedview
     id="base"
     pagecolor="#ffffff"
     bordercolor="#666666"
     borderopacity="1.0"
     inkscape:pageopacity="0.0"
     inkscape:pageshadow="2"
     inkscape:zoom="0.45211896"
     inkscape:cx="137.58736"
     inkscape:cy="311.81373"
     inkscape:document-units="mm"
     inkscape:current-layer="layer1"
     inkscape:document-rotation="0"
     showgrid="false"
     inkscape:showpageshadow="false"
     inkscape:window-width="1920"
     inkscape:window-height="1000"
     inkscape:window-x="-11"
     inkscape:window-y="-11"
     inkscape:window-maximized="1"
     showborder="false" />
  <metadata
     id="metadata5">
    <rdf:RDF>
      <cc:Work
         rdf:about="">
        <dc:format>image/svg+xml</dc:format>
        <dc:type
           rdf:resource="http://purl.org/dc/dcmitype/StillImage" />
        <dc:title></dc:title>
      </cc:Work>
    </rdf:RDF>
  </metadata>
  <g
     inkscape:label="Layer 1"
     inkscape:groupmode="layer"
     id="layer1">
    <path
       style="fill:url(#linearGradient867);stroke-width:1;fill-opacity:1"
       d="m 185.80262,171.973 c -0.85841,-0.20771 -2.34669,-0.75531 -3.3073,-1.2169 -1.56614,-0.75257 -2.90128,-1.98893 -12.92589,-11.96958 -11.08279,-11.03419 -11.17935,-11.13965 -11.17865,-12.20869 5.3e-4,-0.81125 0.16667,-1.23427 0.67072,-1.7078 l 0.67001,-0.62944 -3.64303,-3.65001 c -2.00367,-2.00751 -3.72754,-3.65002 -3.83084,-3.65002 -0.10329,0 -0.91301,0.42504 -1.79937,0.94452 -3.82405,2.24121 -10.27224,4.55878 -15.37955,5.52762 -16.93808,3.2131 -35.106622,-2.9705 -46.585612,-15.85524 -7.39968,-8.30587 -11.99104,-18.22639 -13.18802,-28.495255 -0.50606,-4.34147 -0.2061,-11.715084 0.63866,-15.699759 2.30991,-10.895594 8.15437,-20.940149 16.42836,-28.234504 C 107.73897,41.580504 130.02305,38.551981 148.46961,47.504 c 5.60418,2.719678 9.95218,5.879421 14.4387,10.492767 8.60826,8.851613 13.29799,19.217363 14.30443,31.617241 0.78035,9.614357 -1.5526,19.911682 -6.42759,28.370532 l -1.35028,2.34293 3.40418,3.41176 c 1.8723,1.87646 3.50618,3.41175 3.63084,3.41175 0.12467,0 0.5294,-0.23812 0.8994,-0.52917 0.38873,-0.30577 1.07336,-0.52916 1.62173,-0.52916 0.8966,0 1.54563,0.59521 11.75643,10.78177 11.82771,11.79963 12.44987,12.55677 13.41317,16.32321 0.95879,3.74884 0.58594,7.39896 -1.11622,10.92747 -1.16028,2.40522 -4.18156,5.44693 -6.56691,6.61134 -3.28336,1.60277 -7.25837,2.06323 -10.67487,1.23656 z m 5.45032,-5.16743 c 3.12011,-0.66202 5.54797,-2.59836 6.92171,-5.52043 0.69781,-1.48431 0.80848,-2.02193 0.817,-3.96875 0.009,-2.00933 -0.0843,-2.45135 -0.86445,-4.10395 -0.80305,-1.70116 -1.63297,-2.61242 -10.18469,-11.18279 l -9.3104,-9.3307 -6.94856,6.95455 -6.94857,6.95454 9.46211,9.42266 c 5.20416,5.18247 9.8467,9.61709 10.31675,9.85472 1.11198,0.56214 3.41652,1.17816 4.49014,1.20023 0.46578,0.01 1.47782,-0.11646 2.24896,-0.28008 z m -22.12183,-38.26553 c -1.75508,-1.78263 -3.25237,-3.23379 -3.32732,-3.22479 -0.0749,0.009 -0.85064,0.86103 -1.72376,1.89344 -0.87313,1.0324 -2.81137,2.95461 -4.3072,4.27157 l -2.71971,2.39447 3.23634,3.24413 3.23634,3.24413 4.39818,-4.2909 4.39818,-4.2909 z m -35.23192,9.72851 c 14.15308,-2.42827 26.5087,-11.75958 33.18384,-25.06136 7.02642,-14.001775 6.07171,-30.731415 -2.50044,-43.815492 C 152.7009,51.256087 131.934,43.807385 111.42795,50.326113 c -3.1026,0.986296 -9.15456,4.058032 -12.038542,6.11029 -3.24037,2.305861 -8.6382,7.70944 -10.90715,10.918752 -3.68742,5.21567 -6.40647,11.516749 -7.65807,17.746683 -0.80551,4.009493 -0.86211,11.900197 -0.11468,15.987682 3.69065,20.18319 20.014612,35.37391 40.508022,37.69588 3.08231,0.34923 9.05175,0.10595 12.68166,-0.51685 z m -12.52545,-20.65498 c -11.16856,-1.40287 -22.415142,-7.87602 -31.786572,-18.295265 -3.51106,-3.90364 -3.95609,-4.57087 -3.95609,-5.93135 0,-1.03063 0.19523,-1.37835 2.02037,-3.59832 4.35704,-5.299593 11.16787,-11.346166 16.103582,-14.296572 4.35958,-2.606016 9.42987,-4.633634 14.15521,-5.660699 1.78467,-0.387903 3.36871,-0.487553 7.67292,-0.482695 5.8553,0.0066 8.05529,0.328134 12.61606,1.843815 2.81798,0.936503 8.10635,3.512375 10.74319,5.232823 4.83557,3.155045 11.20112,9.017431 15.36251,14.148198 2.441,3.0096 2.32143,3.36738 -3.15521,9.440735 -8.3469,9.25636 -17.77633,15.03297 -27.88659,17.08375 -3.18345,0.64574 -8.88483,0.89298 -11.88938,0.51558 z m 12.65976,-6.18572 c 5.34337,-1.34851 10.85964,-4.1348 15.83173,-7.99667 2.39808,-1.86262 7.76339,-7.076465 9.26986,-9.008175 l 0.86587,-1.11028 -4.17817,-4.217253 c -2.298,-2.319486 -5.30927,-5.056259 -6.69172,-6.081718 -16.4231,-12.182167 -33.88333,-11.233416 -50.026382,2.718327 -2.40659,2.079913 -7.3882,7.364724 -7.3882,7.837874 0,0.13536 1.8157,2.07657 4.0349,4.3138 7.391812,7.451905 14.081142,11.567495 21.929902,13.492325 3.76031,0.92217 3.74295,0.92056 8.9602,0.82954 3.95254,-0.069 5.03442,-0.18279 7.39201,-0.77777 z m -10.03784,-5.62661 c -6.00655,-1.00802 -10.59859,-6.310865 -10.57687,-12.214065 0.0133,-3.609675 1.10699,-6.221882 3.67761,-8.78357 4.34388,-4.328792 10.53217,-4.935966 15.62765,-1.533332 6.48739,4.332116 7.33506,13.314172 1.78068,18.868547 -0.91323,0.91323 -2.27987,1.97432 -3.03697,2.35797 -2.32049,1.17588 -5.22098,1.68224 -7.4721,1.30445 z m 4.07034,-5.69356 c 1.47098,-0.432745 3.90777,-2.869535 4.34052,-4.340515 0.53897,-1.83203 0.4049,-3.79685 -0.36443,-5.34069 -1.73225,-3.476181 -5.96721,-4.963213 -9.297,-3.26448 -2.49,1.270304 -4.25954,4.37114 -3.95617,6.93258 0.53716,4.5355 4.83363,7.320335 9.27708,6.013105 z"
       id="path847"
       inkscape:export-xdpi="300"
       inkscape:export-ydpi="300" />
    <text
       xml:space="preserve"
       style="font-size:9.87777px;line-height:1.25;font-family:'Julietta Messie';-inkscape-font-specification:'Julietta Messie';letter-spacing:1.85208px;stroke-width:0.264583"
       x="-102.826"
       y="117.45893"
       id="text859"><tspan
         sodipodi:role="line"
         id="tspan857"
         x="-102.826"
         y="117.45893"
         style="stroke-width:0.264583" /></text>
  </g>
</svg>
