<?xml version="1.0" encoding="UTF-8" standalone="no"?>
<svg
   width="297mm"
   height="210mm"
   viewBox="0 0 297 210"
   version="1.1"
   id="svg8"
   inkscape:version="1.1.1 (1:1.1+202109281949+c3084ef5ed)"
   sodipodi:docname="drawing-12 (2).svg"
   xmlns:inkscape="http://www.inkscape.org/namespaces/inkscape"
   xmlns:sodipodi="http://sodipodi.sourceforge.net/DTD/sodipodi-0.dtd"
   xmlns:xlink="http://www.w3.org/1999/xlink"
   xmlns="http://www.w3.org/2000/svg"
   xmlns:svg="http://www.w3.org/2000/svg"
   xmlns:rdf="http://www.w3.org/1999/02/22-rdf-syntax-ns#"
   xmlns:cc="http://creativecommons.org/ns#"
   xmlns:dc="http://purl.org/dc/elements/1.1/">
  <defs
     id="defs2">
    <linearGradient
       inkscape:collect="always"
       id="linearGradient865">
      <stop
         style="stop-color:#3fc1c6;stop-opacity:1"
         offset="0"
         id="stop861" />
      <stop
         style="stop-color:#3fc1c6;stop-opacity:1"
         offset="1"
         id="stop863" />
    </linearGradient>
    <linearGradient
       inkscape:collect="always"
       xlink:href="#linearGradient865"
       id="linearGradient867"
       x1="199.71974"
       y1="166.10355"
       x2="105.76357"
       y2="65.094398"
       gradientUnits="userSpaceOnUse"
       gradientTransform="matrix(3.2675122,0,0,3.2675122,-821.22763,-887.79508)" />
  </defs>
  <sodipodi:namedview
     id="base"
     pagecolor="#ffffff"
     bordercolor="#666666"
     borderopacity="1.0"
     inkscape:pageopacity="0.0"
     inkscape:pageshadow="2"
     inkscape:zoom="0.15984819"
     inkscape:cx="-1707.8704"
     inkscape:cy="-2180.1936"
     inkscape:document-units="mm"
     inkscape:current-layer="layer1"
     inkscape:document-rotation="0"
     showgrid="false"
     inkscape:showpageshadow="false"
     inkscape:window-width="1920"
     inkscape:window-height="1022"
     inkscape:window-x="0"
     inkscape:window-y="27"
     inkscape:window-maximized="1"
     showborder="false"
     inkscape:pagecheckerboard="0" />
  <metadata
     id="metadata5">
    <rdf:RDF>
      <cc:Work
         rdf:about="">
        <dc:format>image/svg+xml</dc:format>
        <dc:type
           rdf:resource="http://purl.org/dc/dcmitype/StillImage" />
        <dc:title />
      </cc:Work>
    </rdf:RDF>
  </metadata>
  <g
     inkscape:label="Layer 1"
     inkscape:groupmode="layer"
     id="layer1">
    <path
       style="fill:url(#linearGradient867);fill-opacity:1;stroke-width:3.26751"
       d="m -214.11528,-325.87121 c -2.80486,-0.67869 -7.66784,-2.46798 -10.80664,-3.97623 -5.11738,-2.45904 -9.47997,-6.49886 -42.2355,-39.11075 -36.21316,-36.05435 -36.52867,-36.39894 -36.52638,-39.89205 0.002,-2.65076 0.5446,-4.03299 2.19159,-5.58025 l 2.18926,-2.05671 -11.90364,-11.92645 c -6.54702,-6.55956 -12.17978,-11.92648 -12.51732,-11.92648 -0.3375,0 -2.98327,1.38882 -5.87946,3.08623 -12.49513,7.32318 -33.56467,14.89587 -50.25287,18.06156 -55.34538,10.49885 -114.71131,-9.70614 -152.21905,-51.80719 -24.17854,-27.13953 -39.18087,-59.55495 -43.09201,-93.10861 -1.65356,-14.1858 -0.67344,-38.27916 2.08683,-51.29912 7.54766,-35.60151 26.6445,-68.42219 53.67986,-92.2566 50.21141,-44.26643 123.02491,-54.16216 183.29927,-24.91132 18.31172,8.88659 32.51887,19.21107 47.17863,34.28525 28.12759,28.92275 43.45134,62.79296 46.73989,103.30969 2.54981,31.41503 -5.07313,65.06169 -21.00222,92.70108 l -4.41206,7.65555 11.1232,11.14797 c 6.11776,6.13136 11.45649,11.14794 11.86381,11.14794 0.40736,0 1.72982,-0.77806 2.9388,-1.72907 1.27018,-0.99911 3.50722,-1.72904 5.29903,-1.72904 2.92965,0 5.05036,1.94486 38.41427,35.22956 38.64719,38.55544 40.68011,41.0294 43.8277,53.33629 3.13286,12.24938 1.91457,24.17619 -3.64726,35.70564 -3.79123,7.85909 -13.6633,17.79791 -21.45746,21.60264 -10.72842,5.23707 -23.71681,6.74163 -34.88027,4.04047 z m 17.80899,-16.88464 c 10.195,-2.16316 18.12806,-8.49017 22.61677,-18.03807 2.2801,-4.85 2.64172,-6.60668 2.66956,-12.96794 0.0294,-6.56551 -0.27545,-8.00982 -2.8246,-13.40971 -2.62398,-5.55856 -5.33575,-8.53611 -33.2786,-36.5399 l -30.42185,-30.48817 -22.7045,22.72407 -22.70454,22.72405 30.91756,30.78865 c 17.00466,16.93379 32.17421,31.42396 33.71011,32.20042 3.63341,1.8368 11.16352,3.84965 14.67159,3.92177 1.52194,0.0327 4.82879,-0.38054 7.3485,-0.91517 z m -72.28335,-125.03308 c -5.73474,-5.82477 -10.62716,-10.56645 -10.87206,-10.53704 -0.24473,0.0294 -2.77947,2.81342 -5.63241,6.18683 -2.85296,3.37338 -9.18618,9.65423 -14.07382,13.95741 l -8.88669,7.82396 10.57478,10.60024 10.57478,10.60023 14.37111,-14.02057 14.37111,-14.02057 z m -115.12073,31.78802 c 46.24536,-7.9344 86.6175,-38.42457 108.4286,-81.8883 22.95892,-45.75098 19.83939,-100.41525 -8.17021,-143.16765 -38.82357,-59.25832 -106.67967,-83.59704 -173.68344,-62.29704 -10.13778,3.22274 -29.91263,13.25969 -39.33607,19.96544 -10.58795,7.53443 -28.22543,25.19069 -35.63925,35.67719 -12.04869,17.04226 -20.93322,37.63108 -25.02284,57.98749 -2.63201,13.10106 -2.81695,38.88401 -0.37471,52.23994 12.05924,65.94882 65.39798,115.58468 132.36044,123.17174 10.07149,1.14112 29.57671,0.3462 41.43748,-1.68881 z m -40.92706,-67.4904 c -36.4934,-4.58389 -73.24174,-25.73499 -103.863,-59.78002 -11.47243,-12.75519 -12.92657,-14.93537 -12.92657,-19.38075 0,-3.3676 0.63791,-4.50378 6.60158,-11.75756 14.23668,-17.31647 36.49115,-37.07371 52.61864,-46.71421 14.24498,-8.51517 30.81222,-15.14045 46.25232,-18.49641 5.83143,-1.26747 11.0073,-1.59308 25.07136,-1.5772 19.13227,0.0229 26.32076,1.07217 41.22313,6.02468 9.20779,3.06005 26.4876,11.47674 35.10351,17.09833 15.80028,10.30913 36.59979,29.46456 50.19719,46.22938 7.97599,9.83391 7.5853,11.00296 -10.30969,30.84774 -27.2736,30.24527 -58.08438,49.12041 -91.11977,55.82136 -10.40197,2.10996 -29.03129,2.91782 -38.8487,1.68466 z m 41.36592,-20.21191 c 17.45953,-4.40628 35.48401,-13.51051 51.73037,-26.12922 7.83576,-6.08613 25.36697,-23.12245 30.28938,-29.43434 l 2.82924,-3.62785 -13.65222,-13.77992 c -7.50874,-7.57896 -17.3481,-16.52139 -21.86527,-19.87209 -53.66268,-39.80536 -110.7142,-36.70531 -163.46181,8.88218 -7.86356,6.79613 -24.14103,24.06431 -24.14103,25.61033 0,0.44229 5.93282,6.78522 13.18408,14.0954 24.15283,24.3492 46.0103,37.79694 71.65622,44.08635 12.28686,3.0132 12.23013,3.00794 29.27756,2.71053 12.91497,-0.22546 16.45003,-0.59727 24.15348,-2.54137 z m -32.79876,-18.38502 c -19.62648,-3.29372 -34.63102,-20.62084 -34.56005,-39.90962 0.0435,-11.79464 3.6171,-20.33007 12.01663,-28.70039 14.19368,-14.14441 34.414,-16.12834 51.06354,-5.01021 21.19762,14.15526 23.9674,43.50421 5.81839,61.65322 -2.98399,2.98399 -7.4495,6.45111 -9.92333,7.70469 -7.58223,3.84221 -17.05962,5.49674 -24.41518,4.26231 z m 13.29988,-18.60378 c 4.80645,-1.41401 12.76869,-9.37625 14.18271,-14.1827 1.76109,-5.98618 1.32301,-12.40625 -1.19078,-17.45077 -5.66015,-11.35846 -19.49794,-16.21735 -30.37807,-10.66673 -8.1361,4.15076 -13.91809,14.28276 -12.92683,22.65229 1.75518,14.8198 15.79395,23.9193 30.31297,19.64791 z"
       id="path847"
       inkscape:export-xdpi="300"
       inkscape:export-ydpi="300" />
    <text
       xml:space="preserve"
       style="font-size:9.87777px;line-height:1.25;font-family:'Julietta Messie';-inkscape-font-specification:'Julietta Messie';letter-spacing:1.85208px;stroke-width:0.264583"
       x="-102.826"
       y="117.45893"
       id="text859"><tspan
         sodipodi:role="line"
         id="tspan857"
         x="-102.826"
         y="117.45893"
         style="stroke-width:0.264583" /></text>
  </g>
</svg>
