<?xml version="1.0" encoding="UTF-8" standalone="no"?>
<svg
   xmlns:dc="http://purl.org/dc/elements/1.1/"
   xmlns:cc="http://creativecommons.org/ns#"
   xmlns:rdf="http://www.w3.org/1999/02/22-rdf-syntax-ns#"
   xmlns:svg="http://www.w3.org/2000/svg"
   xmlns="http://www.w3.org/2000/svg"
   xmlns:sodipodi="http://sodipodi.sourceforge.net/DTD/sodipodi-0.dtd"
   xmlns:inkscape="http://www.inkscape.org/namespaces/inkscape"
   id="Layer_1"
   data-name="Layer 1"
   viewBox="0 0 486 486"
   version="1.1"
   sodipodi:docname="pg.svg"
   width="486"
   height="486"
   inkscape:version="0.92.3 (2405546, 2018-03-11)">
  <metadata
     id="metadata47">
    <rdf:RDF>
      <cc:Work
         rdf:about="">
        <dc:format>image/svg+xml</dc:format>
        <dc:type
           rdf:resource="http://purl.org/dc/dcmitype/StillImage" />
        <dc:title>Artboard 1</dc:title>
      </cc:Work>
    </rdf:RDF>
  </metadata>
  <sodipodi:namedview
     pagecolor="#ffffff"
     bordercolor="#666666"
     borderopacity="1"
     objecttolerance="10"
     gridtolerance="10"
     guidetolerance="10"
     inkscape:pageopacity="0"
     inkscape:pageshadow="2"
     inkscape:window-width="1920"
     inkscape:window-height="951"
     id="namedview45"
     showgrid="false"
     inkscape:zoom="1.4465021"
     inkscape:cx="58.769983"
     inkscape:cy="263.33557"
     inkscape:window-x="0"
     inkscape:window-y="27"
     inkscape:window-maximized="1"
     inkscape:current-layer="Layer_1"
     inkscape:snap-page="true" />
  <defs
     id="defs4">
    <style
       id="style2">.cls-1{fill:#0082aa;}.cls-2,.cls-5{stroke:#0f6;}.cls-2,.cls-4,.cls-5,.cls-6{stroke-miterlimit:10;}.cls-2,.cls-4{stroke-width:17px;}.cls-3{fill:#fff;}.cls-4,.cls-5,.cls-6{fill:none;}.cls-4,.cls-6{stroke:#0082aa;}.cls-5,.cls-6{stroke-width:26px;}.cls-7{font-size:81.47px;font-family:MyriadPro-Regular, Myriad Pro;}.cls-8{fill:#0f6;}.cls-9{letter-spacing:0em;}.cls-10{letter-spacing:0em;}.cls-11{letter-spacing:-0.03em;}.cls-12{letter-spacing:-0.04em;}.cls-13{letter-spacing:0em;}</style>
    <filter
       style="color-interpolation-filters:sRGB;"
       inkscape:label="Drop Shadow"
       id="filter877">
      <feFlood
         flood-opacity="0.498039"
         flood-color="rgb(0,0,0)"
         result="flood"
         id="feFlood867" />
      <feComposite
         in="flood"
         in2="SourceGraphic"
         operator="in"
         result="composite1"
         id="feComposite869" />
      <feGaussianBlur
         in="composite1"
         stdDeviation="5"
         result="blur"
         id="feGaussianBlur871" />
      <feOffset
         dx="2"
         dy="2"
         result="offset"
         id="feOffset873" />
      <feComposite
         in="SourceGraphic"
         in2="offset"
         operator="over"
         result="composite2"
         id="feComposite875" />
    </filter>
  </defs>
  <title
     id="title6">Artboard 1</title>
  <g
     id="g841"
     style="filter:url(#filter877)">
    <path
       id="path10"
       d="M 226.47,132.23 A 109.6,109.6 0 0 0 102.6,126.5 l 6.89,7.21 a 99.87,99.87 0 0 1 110.36,5.73 c 2.1,-2.44 4.32,-4.89 6.62,-7.21 z"
       class="cls-2"
       inkscape:connector-curvature="0"
       style="stroke:#00ff66;stroke-width:17px;stroke-miterlimit:10" />
    <path
       id="path12"
       d="m 244.37,165.74 a 99.56,99.56 0 0 1 15.7,51.18 c 3.24,0.1 6.5,0.19 9.75,0.25 a 109.18,109.18 0 0 0 -18.85,-59.09 84.53,84.53 0 0 0 -6.6,7.66 z"
       class="cls-2"
       inkscape:connector-curvature="0"
       style="stroke:#00ff66;stroke-width:17px;stroke-miterlimit:10" />
    <path
       id="path14"
       d="m 198.29,230.5 -0.3,-5.68 A 115.54,115.54 0 0 1 306.31,103.29 l 7.37,-0.45 -3.22,21.91 -4.76,0.38 a 93.27,93.27 0 0 0 -85.12,79.87 95,95 0 0 0 -0.85,19.2 l 0.37,6.35 z"
       class="cls-3"
       inkscape:connector-curvature="0"
       style="fill:#ffffff" />
    <path
       id="path16"
       d="m 214.65,204.08 a 99.78,99.78 0 0 1 90.57,-84.93 l 1.45,-9.88 a 109.51,109.51 0 0 0 -82.3,173.17 89.14,89.14 0 0 0 6.61,-7.54 99.42,99.42 0 0 1 -16.33,-70.82 z"
       class="cls-4"
       inkscape:connector-curvature="0"
       style="fill:none;stroke:#0082aa;stroke-width:17px;stroke-miterlimit:10" />
    <path
       id="path18"
       d="m 406.23,255 a 99.79,99.79 0 0 1 -154.75,41.87 c -2.1,2.48 -4.32,4.87 -6.63,7.18 a 109.53,109.53 0 0 0 171.25,-47.6 z"
       class="cls-4"
       inkscape:connector-curvature="0"
       style="fill:none;stroke:#0082aa;stroke-width:17px;stroke-miterlimit:10" />
    <path
       id="path20"
       d="M 229.3,291.65 A 99.8,99.8 0 0 1 105.65,303 l -7.21,6.9 a 109.51,109.51 0 0 0 171.41,-92.68 c -3.25,-0.06 -6.51,-0.15 -9.75,-0.25 a 99.51,99.51 0 0 1 -30.8,74.68 z"
       class="cls-2"
       inkscape:connector-curvature="0"
       style="stroke:#00ff66;stroke-width:17px;stroke-miterlimit:10" />
    <line
       id="line22"
       y2="376"
       x2="330.73999"
       y1="258.91"
       x1="330.73999"
       class="cls-5"
       style="fill:none;stroke:#00ff66;stroke-width:26px;stroke-miterlimit:10" />
    <line
       id="line24"
       y2="406.90997"
       x2="158.73999"
       y1="257.91"
       x1="158.73999"
       class="cls-6"
       style="fill:none;stroke:#0082aa;stroke-width:26px;stroke-miterlimit:10" />
  </g>
</svg>
