<?xml version="1.0" encoding="UTF-8" standalone="no"?>
<svg
   xmlns:dc="http://purl.org/dc/elements/1.1/"
   xmlns:cc="http://creativecommons.org/ns#"
   xmlns:rdf="http://www.w3.org/1999/02/22-rdf-syntax-ns#"
   xmlns:svg="http://www.w3.org/2000/svg"
   xmlns="http://www.w3.org/2000/svg"
   xmlns:sodipodi="http://sodipodi.sourceforge.net/DTD/sodipodi-0.dtd"
   xmlns:inkscape="http://www.inkscape.org/namespaces/inkscape"
   inkscape:version="1.0beta1 (fe3e306, 2019-09-17)"
   height="306.7608"
   width="342.69443"
   sodipodi:docname="pg.svg"
   version="1.1"
   viewBox="0 0 342.69443 306.7608"
   data-name="Layer 1"
   id="Layer_1">
  <metadata
     id="metadata953">
    <rdf:RDF>
      <cc:Work
         rdf:about="">
        <dc:format>image/svg+xml</dc:format>
        <dc:type
           rdf:resource="http://purl.org/dc/dcmitype/StillImage" />
      </cc:Work>
    </rdf:RDF>
  </metadata>
  <sodipodi:namedview
     inkscape:current-layer="Layer_1"
     inkscape:window-maximized="1"
     inkscape:window-y="0"
     inkscape:window-x="0"
     inkscape:cy="279.85083"
     inkscape:cx="52.366528"
     inkscape:zoom="0.98994949"
     showgrid="false"
     id="namedview951"
     inkscape:window-height="1052"
     inkscape:window-width="1920"
     inkscape:pageshadow="2"
     inkscape:pageopacity="0"
     guidetolerance="10"
     gridtolerance="10"
     objecttolerance="10"
     borderopacity="1"
     inkscape:document-rotation="0"
     bordercolor="#666666"
     pagecolor="#ffffff" />
  <defs
     id="defs910">
    <inkscape:path-effect
       is_visible="true"
       id="path-effect961"
       effect="circle_3pts" />
    <inkscape:path-effect
       is_visible="true"
       id="path-effect957"
       effect="circle_3pts" />
    <style
       id="style908">.cls-1{fill:#0082aa;}.cls-2,.cls-5{stroke:#0f6;}.cls-2,.cls-4,.cls-5,.cls-6{stroke-miterlimit:10;}.cls-2,.cls-4{stroke-width:17px;}.cls-3{fill:#fff;}.cls-4,.cls-5,.cls-6{fill:none;}.cls-4,.cls-6{stroke:#0082aa;}.cls-5,.cls-6{stroke-width:26px;}.cls-7{font-size:81.47px;font-family:MyriadPro-Regular, Myriad Pro;}.cls-8{fill:#0f6;}.cls-9{letter-spacing:0em;}.cls-10{letter-spacing:0em;}.cls-11{letter-spacing:-0.03em;}.cls-12{letter-spacing:-0.04em;}.cls-13{letter-spacing:0em;}</style>
  </defs>
  <title
     id="title912">Artboard 1</title>
  <path
     inkscape:connector-curvature="0"
     id="path916"
     d="m 141.46653,32.080826 a 109.6,109.6 0 0 0 -123.870002,-5.73 l 6.89,7.21 a 99.87,99.87 0 0 1 110.360002,5.73 c 2.1,-2.44 4.32,-4.89 6.62,-7.21 z"
     class="cls-2" />
  <path
     inkscape:connector-curvature="0"
     id="path918"
     d="m 159.36653,65.590826 a 99.56,99.56 0 0 1 15.7,51.180004 c 3.24,0.1 6.5,0.19 9.75,0.25 a 109.18,109.18 0 0 0 -18.85,-59.090004 84.53,84.53 0 0 0 -6.6,7.66 z"
     class="cls-2" />
  <path
     inkscape:connector-curvature="0"
     id="path920"
     d="m 113.28653,130.35083 -0.3,-5.68 a 115.54,115.54 0 0 1 108.32,-121.5300044 l 7.37,-0.45 -3.22,21.9100004 -4.76,0.38 a 93.27,93.27 0 0 0 -85.12,79.870004 95,95 0 0 0 -0.85,19.2 l 0.37,6.35 z"
     class="cls-3" />
  <path
     inkscape:connector-curvature="0"
     id="path922"
     d="m 129.64653,103.93083 a 99.78,99.78 0 0 1 90.57,-84.930004 l 1.45,-9.8800004 a 109.51,109.51 0 0 0 -82.3,173.1700044 89.14,89.14 0 0 0 6.61,-7.54 99.42,99.42 0 0 1 -16.33,-70.82 z"
     class="cls-4" />
  <path
     inkscape:connector-curvature="0"
     id="path924"
     d="m 321.22653,154.85083 a 99.79,99.79 0 0 1 -154.75,41.87 c -2.1,2.48 -4.32,4.87 -6.63,7.18 a 109.53,109.53 0 0 0 171.25,-47.6 z"
     class="cls-4" />
  <line
     id="line928"
     y2="275.85083"
     x2="245.73653"
     y1="158.76083"
     x1="245.73653"
     class="cls-5" />
  <path
     inkscape:connector-curvature="0"
     id="path926"
     d="m 144.29653,191.50083 a 99.8,99.8 0 0 1 -123.650002,11.35 l -7.21,6.9 a 109.51,109.51 0 0 0 171.410002,-92.68 c -3.25,-0.06 -6.51,-0.15 -9.75,-0.25 a 99.51,99.51 0 0 1 -30.8,74.68 z"
     class="cls-2" />
  <line
     id="line930"
     y2="306.7608"
     x2="73.736526"
     y1="157.76083"
     x1="73.736526"
     class="cls-6" />
</svg>
