<?xml version="1.0" encoding="UTF-8" standalone="no"?>
<!-- Created with Inkscape (http://www.inkscape.org/) -->

<svg
   xmlns:dc="http://purl.org/dc/elements/1.1/"
   xmlns:cc="http://creativecommons.org/ns#"
   xmlns:rdf="http://www.w3.org/1999/02/22-rdf-syntax-ns#"
   xmlns:svg="http://www.w3.org/2000/svg"
   xmlns="http://www.w3.org/2000/svg"
   xmlns:xlink="http://www.w3.org/1999/xlink"
   xmlns:sodipodi="http://sodipodi.sourceforge.net/DTD/sodipodi-0.dtd"
   xmlns:inkscape="http://www.inkscape.org/namespaces/inkscape"
   width="98.842117mm"
   height="130.51337mm"
   viewBox="0 0 98.842114 130.51337"
   version="1.1"
   id="svg993"
   inkscape:version="0.92.3 (2405546, 2018-03-11)"
   sodipodi:docname="FinalProdyLogo.svg"
   inkscape:export-filename="/home/zeldariomon/Documents/ISTE/Prodyogiki2020/prodyLogo4.png"
   inkscape:export-xdpi="96"
   inkscape:export-ydpi="96">
  <sodipodi:namedview
     id="base"
     pagecolor="#ffffff"
     bordercolor="#666666"
     borderopacity="1.0"
     inkscape:pageopacity="0.0"
     inkscape:pageshadow="2"
     inkscape:zoom="0.53755605"
     inkscape:cx="454.10705"
     inkscape:cy="252.61982"
     inkscape:document-units="mm"
     inkscape:current-layer="layer1"
     showgrid="false"
     showguides="true"
     inkscape:guide-bbox="true"
     inkscape:snap-global="false"
     inkscape:window-width="1920"
     inkscape:window-height="951"
     inkscape:window-x="0"
     inkscape:window-y="27"
     inkscape:window-maximized="1" />
  <defs
     id="defs987">
    <linearGradient
       id="linearGradient1588"
       inkscape:collect="always">
      <stop
         id="stop1584"
         offset="0"
         style="stop-color:#00fa73;stop-opacity:1" />
      <stop
         id="stop1586"
         offset="1"
         style="stop-color:#008bff;stop-opacity:1" />
    </linearGradient>
    <linearGradient
       gradientTransform="matrix(1.2662013,0,0,-1.2662013,-74.908238,293.35444)"
       gradientUnits="userSpaceOnUse"
       y2="129.23125"
       x2="129.43147"
       y1="219.43245"
       x1="77.980194"
       id="linearGradient1590"
       xlink:href="#linearGradient1588"
       inkscape:collect="always" />
    <linearGradient
       inkscape:collect="always"
       xlink:href="#linearGradient1588"
       id="linearGradient1708"
       gradientUnits="userSpaceOnUse"
       gradientTransform="matrix(4.7856425,0,0,-4.7856425,-313.95515,1085.3589)"
       x1="77.980194"
       y1="219.43245"
       x2="129.43147"
       y2="129.23125" />
  </defs>
  <metadata
     id="metadata990">
    <rdf:RDF>
      <cc:Work
         rdf:about="">
        <dc:format>image/svg+xml</dc:format>
        <dc:type
           rdf:resource="http://purl.org/dc/dcmitype/StillImage" />
        <dc:title />
      </cc:Work>
    </rdf:RDF>
  </metadata>
  <g
     id="layer1"
     inkscape:groupmode="layer"
     inkscape:label="Layer 1"
     transform="translate(-17.305248,-7.7236595)"
     style="display:inline" />
  <g
     inkscape:groupmode="layer"
     id="layer2"
     inkscape:label="backg"
     transform="translate(-0.52205467,-1.5661602)">
    <path
       style="display:inline;fill:url(#linearGradient1708);fill-opacity:1;stroke-width:1.2662015"
       d="M 170.67969 23.105469 C 169.87209 23.156514 169.15416 23.612467 168.58398 24.511719 L 168.58789 24.509766 C 167.33263 26.489588 166.70344 52.41585 166.78516 98.748047 L 166.79297 104.82422 L 166.64453 104.81836 L 166.64453 133.04297 C 166.64687 133.07268 166.65422 133.09254 166.65625 133.12305 C 166.6721 133.36227 166.66415 133.57648 166.64453 133.7832 L 166.64453 145.51758 L 166.70703 146.20117 C 166.86183 147.89848 166.82712 149.59834 166.64453 150.34375 L 166.64453 167.26562 L 166.55859 167.26562 C 166.56305 170.36368 166.57414 173.13749 166.5625 176.875 L 166.56445 176.875 C 166.54309 183.66819 166.54403 209.32154 166.53516 229.08398 L 149.98438 229.08398 L 149.98438 238.36914 L 228.8125 238.36914 L 228.8125 229.08398 L 215.31445 229.08398 C 215.6377 182.62463 216.03073 157.76453 216.48828 157.04297 C 218.1797 154.37523 224.11334 155.45137 234.30469 160.27344 C 252.18624 168.73406 265.9204 181.86524 277.47461 201.54883 C 286.01759 216.10265 291.15014 240.05347 289.53125 257.80859 C 286.95202 286.09617 275.50257 308.27546 254.2832 326.08398 L 246.73047 332.42188 L 246.80664 342.14648 C 247.07045 375.83251 247.38933 382.92524 248.67773 383.74219 C 253.30977 386.67911 277.89178 371.33219 295.14453 354.73242 C 307.04898 343.27864 323.86426 317.39359 329.63477 301.63867 C 344.75696 260.35191 341.38394 214.93129 320.41992 177.5625 C 306.76951 153.23039 296.17409 142.70754 261.54688 119.08203 C 233.94926 100.25249 224.31017 92.313098 209.73828 76.408203 C 197.51529 63.067219 184.28061 44.004617 177.91211 30.568359 C 175.72678 25.957703 173.12309 23.26873 171.03125 23.107422 C 170.9124 23.098257 170.79506 23.098177 170.67969 23.105469 z M 146.64648 108.43945 C 139.29566 110.84226 130.95101 114.07446 124.4043 117.22461 C 112.34352 123.02801 94.968883 135.48894 85.337891 145.24023 C 75.79088 154.90645 60.487903 177.13462 55.152344 189.08594 C 19.070517 269.90656 60.272702 363.01425 144.49414 390.97852 C 150.22561 392.88155 157.54106 394.86223 160.75195 395.38086 L 166.5918 396.32422 L 166.53906 431.06836 C 166.50883 450.17773 166.69614 466.88716 166.94922 468.19922 C 167.34066 470.22682 168.14899 470.48355 172.3457 469.91602 L 177.2832 469.24805 L 177.82422 367.09766 C 178.12205 310.91433 178.8637 264.69917 179.47266 264.39844 C 180.08165 264.09797 180.55142 265.74522 180.51562 268.05859 C 180.05382 297.90416 179.49516 446.11429 179.83789 447.89648 C 180.23319 449.95081 180.85232 450.28573 184.17188 450.23633 C 186.30298 450.20231 188.28753 449.79841 188.58203 449.33398 C 188.87683 448.86929 189.27178 422.69189 189.45898 391.16016 C 189.64645 359.62859 190.25802 333.4575 190.81641 333.00195 C 191.62141 332.34545 192.01675 404.18331 191.32227 424.96289 C 191.23042 427.58717 191.42036 429.89545 191.73633 430.0918 C 192.05381 430.28606 194.43417 430.2112 197.02734 429.92773 L 201.74219 429.4082 L 201.90039 399.32617 C 201.9877 382.78084 202.54938 369.24891 203.14844 369.25586 C 203.7473 369.25964 204.15999 377.77572 204.06641 388.17188 C 203.97305 398.56805 203.9152 407.314 203.9375 407.60938 C 204.00251 408.48292 208.48965 409.32098 211.66211 409.05078 C 214.43451 408.81494 214.61193 406.55409 214.70898 370.16602 C 214.8197 328.62889 214.95369 293.76463 215.10547 264.19531 L 228.8125 264.19531 L 228.8125 254.82422 L 149.98438 254.82422 L 149.98438 264.19531 L 166.51562 264.19531 C 166.51593 266.71925 166.51116 267.66242 166.51172 270.17188 C 166.51928 309.3456 166.50428 342.18814 166.46875 343.1543 C 166.43473 344.30924 164.77641 344.43318 161.63672 343.51562 C 117.88362 330.7272 88.528217 286.07129 93.615234 240.03906 C 95.520003 222.80325 99.357736 211.72238 108.30859 197.60547 C 117.72903 182.74792 130.76178 170.98221 146.64648 162.88477 L 146.64648 158.67969 C 140.9112 161.3899 135.64725 164.62655 130.125 168.78125 C 83.470967 203.88116 75.622672 269.30584 112.58398 315.00781 C 118.82342 322.7227 120.57919 324.12315 136.96484 334.48828 C 150.25805 342.89418 156.14977 346.03435 160.80664 347.18359 L 166.99219 348.71094 L 166.63477 352.75977 C 166.21603 357.51657 166.37105 357.49509 155.86914 354.30664 C 144.37605 350.81723 119.03179 334.74636 110.9707 325.83594 C 97.641071 311.10228 89.377542 295.91942 84.828125 277.80078 C 79.380201 256.10319 79.845873 236.06448 86.277344 215.54883 C 90.822906 201.04882 103.20007 181.4836 114.36914 171.14062 C 123.04826 163.10356 135.19303 155.20567 146.64648 149.93945 L 146.64648 141.66211 C 131.33961 147.82231 116.04533 158.37121 103.75 171.51562 C 96.473238 179.29488 81.51447 205.08425 78.470703 215.09766 C 75.063383 226.30698 72.813386 247.22045 73.703125 259.41211 C 75.659824 286.22521 87.439859 311.70608 107.65625 332.85938 C 117.0127 342.64943 140.71926 357.17608 153.80273 361.13477 C 166.46483 364.96581 167.52595 365.50333 166.27734 367.47266 C 165.59593 368.54725 161.8889 368.14833 155.04883 366.26367 C 145.89413 363.74114 142.90293 362.22512 126.11914 351.59375 C 108.788 340.61615 106.84026 339.0786 99.837891 330.88281 C 76.014697 302.99855 65.641348 269.27801 70.130859 234.3125 C 75.746951 190.57245 105.48006 153.21379 146.64648 136.89062 L 146.64648 108.43945 z "
       transform="matrix(0.26458333,0,0,0.26458333,0.52205467,1.5661602)"
       id="path976" />
  </g>
</svg>
