<?xml version="1.0" encoding="UTF-8" standalone="no"?>
<svg
   xmlns:dc="http://purl.org/dc/elements/1.1/"
   xmlns:cc="http://creativecommons.org/ns#"
   xmlns:rdf="http://www.w3.org/1999/02/22-rdf-syntax-ns#"
   xmlns:svg="http://www.w3.org/2000/svg"
   xmlns="http://www.w3.org/2000/svg"
   xmlns:xlink="http://www.w3.org/1999/xlink"
   xmlns:sodipodi="http://sodipodi.sourceforge.net/DTD/sodipodi-0.dtd"
   xmlns:inkscape="http://www.inkscape.org/namespaces/inkscape"
   version="1.0"
   width="1280.000000pt"
   height="1210.000000pt"
   viewBox="0 0 1280.000000 1210.000000"
   preserveAspectRatio="xMidYMid meet"
   id="svg1458"
   sodipodi:docname="thc.svg"
   inkscape:version="0.92.3 (2405546, 2018-03-11)">
  <defs
     id="defs1462">
    <linearGradient
       inkscape:collect="always"
       id="linearGradient3123">
      <stop
         style="stop-color:#00ff66;stop-opacity:1"
         offset="0"
         id="stop3119" />
      <stop
         style="stop-color:#0082af;stop-opacity:1"
         offset="1"
         id="stop3121" />
    </linearGradient>
    <linearGradient
       inkscape:collect="always"
       xlink:href="#linearGradient3123"
       id="linearGradient3127"
       x1="617.25427"
       y1="11530.919"
       x2="11980.661"
       y2="456.34204"
       gradientUnits="userSpaceOnUse" />
  </defs>
  <sodipodi:namedview
     pagecolor="#ffffff"
     bordercolor="#666666"
     borderopacity="1"
     objecttolerance="10"
     gridtolerance="10"
     guidetolerance="10"
     inkscape:pageopacity="0"
     inkscape:pageshadow="2"
     inkscape:window-width="1920"
     inkscape:window-height="951"
     id="namedview1460"
     showgrid="false"
     inkscape:zoom="0.14628099"
     inkscape:cx="853.33333"
     inkscape:cy="806.66667"
     inkscape:window-x="0"
     inkscape:window-y="27"
     inkscape:window-maximized="1"
     inkscape:current-layer="svg1458" />
  <metadata
     id="metadata1448">
Created by potrace 1.15, written by Peter Selinger 2001-2017
<rdf:RDF>
  <cc:Work
     rdf:about="">
    <dc:format>image/svg+xml</dc:format>
    <dc:type
       rdf:resource="http://purl.org/dc/dcmitype/StillImage" />
  </cc:Work>
</rdf:RDF>
</metadata>
  <g
     transform="translate(0.000000,1210.000000) scale(0.100000,-0.100000)"
     fill="#000000"
     stroke="none"
     id="g1456"
     style="fill-opacity:1;fill:url(#linearGradient3127)">
    <path
       d="M5699 11502 c-371 -328 -1786 -1580 -3144 -2782 -1359 -1201 -2489 -2203 -2512 -2225 l-41 -40 329 -370 c181 -203 333 -371 338 -373 6 -2 949 828 2098 1844 1148 1017 2434 2154 2857 2529 423 374 773 680 777 680 5 0 1291 -1135 2859 -2523 1568 -1388 2857 -2525 2864 -2528 7 -3 122 119 267 283 140 158 289 327 332 375 l78 87 -1038 918 c-571 505 -1882 1665 -2913 2578 -1031 912 -1998 1768 -2149 1902 -214 190 -277 240 -288 232 -9 -8 -17 -8 -26 -1 -10 8 -171 -129 -688 -586z"
       id="path1450"
       style="fill-opacity:1;fill:url(#linearGradient3127)" />
    <path
       d="M1910 10089 l0 -1201 108 98 c59 53 418 378 798 721 l691 623 6 347 c4 190 7 406 7 480 l0 133 -805 0 -805 0 0 -1201z"
       id="path1452"
       style="fill-opacity:1;fill:url(#linearGradient3127)" />
    <path
       d="M4875 8574 c-836 -740 -1845 -1632 -2242 -1982 l-722 -637 0 -2875 c-1 -2870 -1 -2875 20 -2920 29 -64 84 -117 146 -140 53 -20 80 -20 1478 -20 l1425 0 2 1277 c3 1272 3 1278 24 1323 26 58 76 108 134 134 45 21 49 21 1260 21 1211 0 1215 0 1260 -21 58 -26 108 -76 134 -134 21 -45 21 -51 24 -1322 l2 -1278 1425 0 c1398 0 1425 0 1478 20 62 23 117 76 146 140 21 45 21 51 20 2920 l0 2875 -831 735 c-457 404 -1360 1202 -2007 1775 -1658 1467 -1645 1455 -1651 1455 -3 0 -689 -606 -1525 -1346z"
       id="path1454"
       style="fill-opacity:1;fill:url(#linearGradient3127)" />
  </g>
</svg>
