<?xml version="1.0" encoding="UTF-8" standalone="no"?>
<svg
   xmlns:dc="http://purl.org/dc/elements/1.1/"
   xmlns:cc="http://creativecommons.org/ns#"
   xmlns:rdf="http://www.w3.org/1999/02/22-rdf-syntax-ns#"
   xmlns:svg="http://www.w3.org/2000/svg"
   xmlns="http://www.w3.org/2000/svg"
   xmlns:xlink="http://www.w3.org/1999/xlink"
   xmlns:sodipodi="http://sodipodi.sourceforge.net/DTD/sodipodi-0.dtd"
   xmlns:inkscape="http://www.inkscape.org/namespaces/inkscape"
   height="496pt"
   viewBox="-24 0 496 496"
   width="496pt"
   version="1.1"
   id="svg18"
   sodipodi:docname="dc.svg"
   inkscape:version="0.92.3 (2405546, 2018-03-11)">
  <metadata
     id="metadata24">
    <rdf:RDF>
      <cc:Work
         rdf:about="">
        <dc:format>image/svg+xml</dc:format>
        <dc:type
           rdf:resource="http://purl.org/dc/dcmitype/StillImage" />
      </cc:Work>
    </rdf:RDF>
  </metadata>
  <defs
     id="defs22">
    <linearGradient
       inkscape:collect="always"
       id="linearGradient3115">
      <stop
         style="stop-color:#00ff66;stop-opacity:1"
         offset="0"
         id="stop3111" />
      <stop
         style="stop-color:#0082af;stop-opacity:1"
         offset="1"
         id="stop3113" />
    </linearGradient>
    <linearGradient
       inkscape:collect="always"
       xlink:href="#linearGradient3115"
       id="linearGradient3117"
       x1="41.907486"
       y1="7.6829848"
       x2="621.40802"
       y2="649.68799"
       gradientUnits="userSpaceOnUse" />
  </defs>
  <sodipodi:namedview
     pagecolor="#ffffff"
     bordercolor="#666666"
     borderopacity="1"
     objecttolerance="10"
     gridtolerance="10"
     guidetolerance="10"
     inkscape:pageopacity="0"
     inkscape:pageshadow="2"
     inkscape:window-width="1920"
     inkscape:window-height="951"
     id="namedview20"
     showgrid="false"
     inkscape:zoom="0.50466895"
     inkscape:cx="-110.59656"
     inkscape:cy="165.7533"
     inkscape:window-x="0"
     inkscape:window-y="27"
     inkscape:window-maximized="1"
     inkscape:current-layer="svg18" />
  <path
     style="stroke-width:1.33333325;fill-opacity:1;fill:url(#linearGradient3117)"
     d="M 330.66602 0 C 295.36914 0 266.66602 28.703126 266.66602 64 C 266.66602 95.645832 289.78125 121.93164 320 127.04102 L 320 149.875 C 259.33854 154.52604 209.57747 198.30208 195.86914 256 L 138.66602 256 C 132.7806 256 128 260.7806 128 266.66602 L 128 275.81836 C 109.65104 271.05273 96 254.48372 96 234.66602 L 96 213.33398 C 119.53125 213.33398 138.66602 194.19727 138.66602 170.66602 C 138.66602 167.83789 137.54622 165.11979 135.54102 163.125 L 114.20898 141.79102 L 99.125 156.875 L 116.94727 174.69727 C 115.06185 184.54101 106.39063 192 96 192 L 74.666016 192 C 64.275391 192 55.604167 184.54101 53.71875 174.69727 L 71.541016 156.875 L 56.458984 141.79102 L 35.125 163.125 C 33.119792 165.11979 32 167.83789 32 170.66602 C 32 194.19727 51.134766 213.33398 74.666016 213.33398 L 74.666016 234.66602 C 74.666016 266.31185 97.781252 292.59961 128 297.70898 L 128 309.33398 C 128 315.2194 132.7806 320 138.66602 320 L 192 320 L 192 469.33398 L 170.66602 469.33398 L 170.66602 448 L 149.33398 448 L 149.33398 472.14062 C 142.27148 473.96354 135.54232 476.61003 129.30273 480.08398 L 116.20312 453.90039 L 97.119141 463.44727 L 111.88086 492.96875 C 107.75586 496.90625 104.01042 501.22982 100.73438 505.91211 L 80.578125 492.46875 L 68.744141 510.21875 L 90.796875 524.91602 C 88.520834 530.99414 86.91211 537.37435 86.068359 544.00977 L 64 544.00977 L 64 565.34375 L 86.068359 565.34375 C 86.901693 571.97917 88.520834 578.36979 90.796875 584.4375 L 68.744141 599.13477 L 80.578125 616.88477 L 100.73438 603.44727 C 104.01042 608.12956 107.75586 612.44727 111.88086 616.38477 L 97.119141 645.91211 L 116.20312 655.45898 L 129.30273 629.27148 C 135.5319 632.73503 142.26107 635.37956 149.33398 637.21289 L 149.33398 661.33398 L 170.66602 661.33398 L 170.66602 640 L 192 640 L 192 661.33398 L 213.33398 661.33398 L 213.33398 640 L 234.66602 640 L 234.66602 661.33398 L 256 661.33398 L 256 640 L 277.33398 640 L 277.33398 661.33398 L 298.66602 661.33398 L 298.66602 640 L 320 640 L 320 661.33398 L 341.33398 661.33398 L 341.33398 640 L 362.66602 640 L 362.66602 661.33398 L 384 661.33398 L 384 640 L 405.33398 640 L 405.33398 661.33398 L 426.66602 661.33398 L 426.66602 640 L 448 640 L 448 661.33398 L 469.33398 661.33398 L 469.33398 640 L 490.66602 640 L 490.66602 661.33398 L 512 661.33398 L 512 637.19336 C 519.0625 635.37044 525.79167 632.72396 532.03125 629.25 L 545.13086 655.43164 L 564.21289 645.88477 L 549.45312 616.36523 C 553.57812 612.42773 557.32357 608.10417 560.59961 603.42188 L 580.75586 616.86523 L 592.58789 599.11523 L 570.53711 584.41602 C 572.81315 578.33789 574.42187 571.95768 575.26562 565.32227 L 597.33398 565.32227 L 597.33398 543.99023 L 575.26562 543.99023 C 574.43229 537.35482 572.81315 530.96419 570.53711 524.89648 L 592.58789 510.19727 L 580.75586 492.44727 L 560.59961 505.88477 C 557.32357 501.20248 553.57812 496.88476 549.45312 492.94727 L 564.21289 463.42188 L 545.13086 453.875 L 532.03125 480.0625 C 525.80208 476.59896 519.07292 473.95247 512 472.11914 L 512 448 L 490.66602 448 L 490.66602 469.33398 L 469.33398 469.33398 L 469.33398 320 L 522.66602 320 C 528.55143 320 533.33398 315.2194 533.33398 309.33398 L 533.33398 300.18164 C 551.68294 304.94727 565.33398 321.51628 565.33398 341.33398 L 565.33398 362.66602 C 541.80273 362.66602 522.66602 381.80273 522.66602 405.33398 C 522.66602 408.16211 523.78581 410.88021 525.79102 412.875 L 547.125 434.20898 L 562.20898 419.125 L 544.38477 401.30273 C 546.27018 391.45899 554.94336 384 565.33398 384 L 586.66602 384 C 597.05664 384 605.72982 391.45899 607.61523 401.30273 L 589.79102 419.125 L 604.875 434.20898 L 626.20898 412.875 C 628.21419 410.88021 629.33398 408.16211 629.33398 405.33398 C 629.33398 381.80273 610.19727 362.66602 586.66602 362.66602 L 586.66602 341.33398 C 586.66602 309.68815 563.55273 283.40039 533.33398 278.29102 L 533.33398 266.66602 C 533.33398 260.7806 528.55143 256 522.66602 256 L 465.46289 256 C 451.75456 198.30208 401.99544 154.52604 341.33398 149.875 L 341.33398 127.04102 C 371.55273 121.94206 394.66602 95.65625 394.66602 64 L 373.33398 64 C 373.33398 87.53125 354.19727 106.66602 330.66602 106.66602 C 307.13477 106.66602 288 87.53125 288 64 C 288 40.46875 307.13477 21.333984 330.66602 21.333984 L 330.66602 0 z M 330.66602 170.66602 C 395.35872 170.66602 448 223.30729 448 288 L 448 469.33398 L 426.66602 469.33398 L 426.66602 448 L 405.33398 448 L 405.33398 469.33398 L 384 469.33398 L 384 448 L 362.66602 448 L 362.66602 469.33398 L 341.33398 469.33398 L 341.33398 448 L 320 448 L 320 469.33398 L 298.66602 469.33398 L 298.66602 448 L 277.33398 448 L 277.33398 469.33398 L 256 469.33398 L 256 448 L 234.66602 448 L 234.66602 469.33398 L 213.33398 469.33398 L 213.33398 288 C 213.33398 223.30729 265.97331 170.66602 330.66602 170.66602 z M 256 245.33398 C 250.11458 245.33398 245.33398 250.11458 245.33398 256 L 245.33398 298.66602 C 245.33398 304.55143 250.11458 309.33398 256 309.33398 L 298.66602 309.33398 C 304.55143 309.33398 309.33398 304.55143 309.33398 298.66602 L 309.33398 256 C 309.33398 250.11458 304.55143 245.33398 298.66602 245.33398 L 256 245.33398 z M 362.66602 245.33398 C 356.7806 245.33398 352 250.11458 352 256 L 352 298.66602 C 352 304.55143 356.7806 309.33398 362.66602 309.33398 L 405.33398 309.33398 C 411.2194 309.33398 416 304.55143 416 298.66602 L 416 256 C 416 250.11458 411.2194 245.33398 405.33398 245.33398 L 362.66602 245.33398 z M 266.66602 266.66602 L 288 266.66602 L 288 288 L 266.66602 288 L 266.66602 266.66602 z M 373.33398 266.66602 L 394.66602 266.66602 L 394.66602 288 L 373.33398 288 L 373.33398 266.66602 z M 149.33398 277.33398 L 192.54102 277.33398 C 192.26497 280.86523 192 284.39583 192 288 L 192 298.66602 L 149.33398 298.66602 L 149.33398 277.33398 z M 468.79102 277.33398 L 512 277.33398 L 512 298.66602 L 469.33398 298.66602 L 469.33398 288 C 469.33398 284.39583 469.06706 280.86523 468.79102 277.33398 z M 245.33398 330.66602 L 245.33398 352 L 416 352 L 416 330.66602 L 245.33398 330.66602 z M 170.66602 490.66602 L 490.66602 490.66602 C 525.96289 490.66602 554.66602 519.36914 554.66602 554.66602 C 554.66602 589.96289 525.96289 618.66602 490.66602 618.66602 L 170.66602 618.66602 C 135.36914 618.66602 106.66602 589.96289 106.66602 554.66602 C 106.66602 519.36914 135.36914 490.66602 170.66602 490.66602 z M 170.66602 512 C 147.13477 512 128 531.13477 128 554.66602 C 128 578.19727 147.13477 597.33398 170.66602 597.33398 C 194.19727 597.33398 213.33398 578.19727 213.33398 554.66602 C 213.33398 531.13477 194.19727 512 170.66602 512 z M 277.33398 512 C 253.80273 512 234.66602 531.13477 234.66602 554.66602 C 234.66602 578.19727 253.80273 597.33398 277.33398 597.33398 C 300.86523 597.33398 320 578.19727 320 554.66602 C 320 531.13477 300.86523 512 277.33398 512 z M 384 512 C 360.46875 512 341.33398 531.13477 341.33398 554.66602 C 341.33398 578.19727 360.46875 597.33398 384 597.33398 C 407.53125 597.33398 426.66602 578.19727 426.66602 554.66602 C 426.66602 531.13477 407.53125 512 384 512 z M 490.66602 512 C 467.13477 512 448 531.13477 448 554.66602 C 448 578.19727 467.13477 597.33398 490.66602 597.33398 C 514.19727 597.33398 533.33398 578.19727 533.33398 554.66602 C 533.33398 531.13477 514.19727 512 490.66602 512 z M 170.66602 533.33398 C 182.43164 533.33398 192 542.90039 192 554.66602 C 192 566.43164 182.43164 576 170.66602 576 C 158.90039 576 149.33398 566.43164 149.33398 554.66602 C 149.33398 542.90039 158.90039 533.33398 170.66602 533.33398 z M 277.33398 533.33398 C 289.09961 533.33398 298.66602 542.90039 298.66602 554.66602 C 298.66602 566.43164 289.09961 576 277.33398 576 C 265.56836 576 256 566.43164 256 554.66602 C 256 542.90039 265.56836 533.33398 277.33398 533.33398 z M 384 533.33398 C 395.76562 533.33398 405.33398 542.90039 405.33398 554.66602 C 405.33398 566.43164 395.76562 576 384 576 C 372.23438 576 362.66602 566.43164 362.66602 554.66602 C 362.66602 542.90039 372.23438 533.33398 384 533.33398 z M 490.66602 533.33398 C 502.43164 533.33398 512 542.90039 512 554.66602 C 512 566.43164 502.43164 576 490.66602 576 C 478.90039 576 469.33398 566.43164 469.33398 554.66602 C 469.33398 542.90039 478.90039 533.33398 490.66602 533.33398 z "
     transform="matrix(0.75000002,0,0,0.75000002,-24,0)"
     id="path2" />
</svg>
