<?xml version="1.0" encoding="UTF-8" standalone="no"?>
<!-- Generator: Adobe Illustrator 18.1.1, SVG Export Plug-In . SVG Version: 6.00 Build 0)  -->

<svg
   xmlns:dc="http://purl.org/dc/elements/1.1/"
   xmlns:cc="http://creativecommons.org/ns#"
   xmlns:rdf="http://www.w3.org/1999/02/22-rdf-syntax-ns#"
   xmlns:svg="http://www.w3.org/2000/svg"
   xmlns="http://www.w3.org/2000/svg"
   xmlns:xlink="http://www.w3.org/1999/xlink"
   xmlns:sodipodi="http://sodipodi.sourceforge.net/DTD/sodipodi-0.dtd"
   xmlns:inkscape="http://www.inkscape.org/namespaces/inkscape"
   version="1.1"
   id="Capa_1"
   x="0px"
   y="0px"
   viewBox="0 0 406.20801 612"
   xml:space="preserve"
   sodipodi:docname="ee.svg"
   width="406.20801"
   height="612"
   inkscape:version="0.92.3 (2405546, 2018-03-11)"><metadata
   id="metadata45"><rdf:RDF><cc:Work
       rdf:about=""><dc:format>image/svg+xml</dc:format><dc:type
         rdf:resource="http://purl.org/dc/dcmitype/StillImage" /></cc:Work></rdf:RDF></metadata><defs
   id="defs43"><linearGradient
     inkscape:collect="always"
     id="linearGradient856"><stop
       style="stop-color:#00ff66;stop-opacity:1"
       offset="0"
       id="stop852" /><stop
       style="stop-color:#008baf;stop-opacity:1"
       offset="1"
       id="stop854" /></linearGradient><linearGradient
     inkscape:collect="always"
     xlink:href="#linearGradient856"
     id="linearGradient860"
     gradientUnits="userSpaceOnUse"
     x1="121.04754"
     y1="18.152542"
     x2="485.76401"
     y2="593.84747" /></defs><sodipodi:namedview
   pagecolor="#ffffff"
   bordercolor="#666666"
   borderopacity="1"
   objecttolerance="10"
   gridtolerance="10"
   guidetolerance="10"
   inkscape:pageopacity="0"
   inkscape:pageshadow="2"
   inkscape:window-width="1920"
   inkscape:window-height="951"
   id="namedview41"
   showgrid="false"
   inkscape:zoom="0.38562092"
   inkscape:cx="203.105"
   inkscape:cy="306"
   inkscape:window-x="0"
   inkscape:window-y="27"
   inkscape:window-maximized="1"
   inkscape:current-layer="Capa_1" />
<g
   id="g8"
   transform="translate(-102.895)"
   style="fill-opacity:1;fill:url(#linearGradient860)">
	<g
   id="g6"
   style="fill-opacity:1;fill:url(#linearGradient860)">
		<path
   d="m 434.936,303.453 -64.474,53.71 -64.474,-53.708 -64.463,53.699 -64.465,-53.701 -74.165,61.806 0.089,7.388 c 0.866,72.68 21.584,133.756 59.917,176.623 36.171,40.453 86.99,62.73 143.09,62.73 56.109,0 106.934,-22.277 143.106,-62.727 38.333,-42.867 59.052,-103.943 59.917,-176.626 l 0.089,-7.388 z m -9.001,225.108 c -30.637,34.261 -72.112,52.37 -119.946,52.37 -47.823,0 -89.294,-18.109 -119.928,-52.37 -31.995,-35.779 -49.853,-87.165 -51.848,-148.954 l 42.854,-35.712 64.46,53.721 64.463,-53.724 64.498,53.708 64.445,-53.706 42.856,35.712 c -1.997,61.791 -19.857,113.176 -51.854,148.955 z"
   id="path2"
   inkscape:connector-curvature="0"
   style="fill-opacity:1;fill:url(#linearGradient860)" />
		<path
   d="m 103.833,345.612 73.242,-61.016 64.46,53.724 64.463,-53.724 64.462,53.724 64.462,-53.724 73.242,61.016 0.852,-32.033 c 0.047,-1.682 0.047,-3.387 0.047,-5.091 0,-74.942 -20.87,-151.57 -57.259,-210.238 C 412.513,34.893 360.729,0 306,0 251.271,0 199.489,34.893 160.191,98.251 c -36.387,58.67 -57.259,135.299 -57.259,210.238 0,1.704 0.002,3.409 0.047,5.091 z M 306,31.069 c 83.901,0 160.82,114.871 170.884,248.048 L 434.925,244.162 370.462,297.861 306,244.162 241.537,297.861 177.074,244.162 135.112,279.117 C 145.178,145.942 222.097,31.069 306,31.069 Z"
   id="path4"
   inkscape:connector-curvature="0"
   style="fill-opacity:1;fill:url(#linearGradient860)" />
	</g>
</g>
<g
   id="g10"
   transform="translate(-102.895)">
</g>
<g
   id="g12"
   transform="translate(-102.895)">
</g>
<g
   id="g14"
   transform="translate(-102.895)">
</g>
<g
   id="g16"
   transform="translate(-102.895)">
</g>
<g
   id="g18"
   transform="translate(-102.895)">
</g>
<g
   id="g20"
   transform="translate(-102.895)">
</g>
<g
   id="g22"
   transform="translate(-102.895)">
</g>
<g
   id="g24"
   transform="translate(-102.895)">
</g>
<g
   id="g26"
   transform="translate(-102.895)">
</g>
<g
   id="g28"
   transform="translate(-102.895)">
</g>
<g
   id="g30"
   transform="translate(-102.895)">
</g>
<g
   id="g32"
   transform="translate(-102.895)">
</g>
<g
   id="g34"
   transform="translate(-102.895)">
</g>
<g
   id="g36"
   transform="translate(-102.895)">
</g>
<g
   id="g38"
   transform="translate(-102.895)">
</g>
</svg>